<svg version="1.1" xmlns="http://www.w3.org/2000/svg" viewBox="0 0 1139 216" width="2278" height="432">
  <!-- svg-source:excalidraw -->
  
  <defs>
    <style class="style-fonts">
      @font-face {
        font-family: "Virgil";
        src: url("https://excalidraw.com/Virgil.woff2");
      }
      @font-face {
        font-family: "Cascadia";
        src: url("https://excalidraw.com/Cascadia.woff2");
      }
      @font-face {
        font-family: "Assistant";
        src: url("https://excalidraw.com/Assistant-Regular.woff2");
      }
    </style>
    <clipPath id="KRGQdwnC18ZheEFGRYMP1">
            <rect transform="translate(0 0) rotate(0 569.5 108)" width="1139" height="216">
          </rect>
        </clipPath>
  </defs>
  <rect x="0" y="0" width="1139" height="216" fill="#ffffff"></rect><g clip-path="url(#KRGQdwnC18ZheEFGRYMP1)"><g stroke-linecap="round"><g transform="translate(199 86) rotate(0 376 -0.5)"><path d="M-0.93 1.7 C123.88 1.52, 625.65 -0.42, 751.37 -0.62 M3.77 0.15 C127.92 0.45, 624.03 3.94, 748.79 3.21" stroke="#1e1e1e" stroke-width="4" fill="none"></path></g><g transform="translate(199 86) rotate(0 376 -0.5)"><path d="M23.75 -7.37 C13.68 -2.66, 5.34 -1.81, -0.38 0.02 M22.88 -7.16 C15.34 -4.83, 5.78 -0.59, -0.34 0.94" stroke="#1e1e1e" stroke-width="4" fill="none"></path></g><g transform="translate(199 86) rotate(0 376 -0.5)"><path d="M23.81 9.73 C13.69 7.78, 5.32 1.97, -0.38 0.02 M22.93 9.94 C15.42 6.39, 5.84 4.75, -0.34 0.94" stroke="#1e1e1e" stroke-width="4" fill="none"></path></g><g transform="translate(199 86) rotate(0 376 -0.5)"><path d="M726.5 11.28 C734.7 9.47, 744.64 3.65, 749.34 1.53 M725.62 11.5 C734.29 8.11, 740.89 6.46, 749.38 2.45" stroke="#1e1e1e" stroke-width="4" fill="none"></path></g><g transform="translate(199 86) rotate(0 376 -0.5)"><path d="M726.53 -5.82 C734.74 -0.97, 744.68 -0.13, 749.34 1.53 M725.65 -5.6 C734.26 -3.1, 740.85 1.12, 749.38 2.45" stroke="#1e1e1e" stroke-width="4" fill="none"></path></g></g><mask></mask></g><g clip-path="url(#KRGQdwnC18ZheEFGRYMP1)"><g transform="translate(200 17.5) rotate(0 29.149999618530273 17.5)"><text x="0" y="0" font-family="Virgil, Segoe UI Emoji" font-size="28px" fill="#1e1e1e" text-anchor="start" style="white-space: pre;" direction="ltr" dominant-baseline="text-before-edge">MPA</text></g></g><g clip-path="url(#KRGQdwnC18ZheEFGRYMP1)"><g transform="translate(841 26) rotate(0 51.349998474121094 17.5)"><text x="0" y="0" font-family="Virgil, Segoe UI Emoji" font-size="28px" fill="#1e1e1e" text-anchor="start" style="white-space: pre;" direction="ltr" dominant-baseline="text-before-edge">JS SPA</text></g></g><g clip-path="url(#KRGQdwnC18ZheEFGRYMP1)"><g transform="translate(41 68.5) rotate(0 62.79999923706055 25)"><text x="0" y="0" font-family="Virgil, Segoe UI Emoji" font-size="20px" fill="#1e1e1e" text-anchor="start" style="white-space: pre;" direction="ltr" dominant-baseline="text-before-edge">Minimal</text><text x="0" y="25" font-family="Virgil, Segoe UI Emoji" font-size="20px" fill="#1e1e1e" text-anchor="start" style="white-space: pre;" direction="ltr" dominant-baseline="text-before-edge">Interactivity</text></g></g><g clip-path="url(#KRGQdwnC18ZheEFGRYMP1)"><g transform="translate(217.31666564941406 130) rotate(0 21.883333206176758 10)"><text x="0" y="0" font-family="Virgil, Segoe UI Emoji" font-size="16px" fill="#1e1e1e" text-anchor="start" style="white-space: pre;" direction="ltr" dominant-baseline="text-before-edge">Forms</text></g></g><g clip-path="url(#KRGQdwnC18ZheEFGRYMP1)"><g transform="translate(525 127) rotate(0 28.116666793823242 20)"><text x="0" y="0" font-family="Virgil, Segoe UI Emoji" font-size="16px" fill="#1e1e1e" text-anchor="start" style="white-space: pre;" direction="ltr" dominant-baseline="text-before-edge">Infinite</text><text x="0" y="20" font-family="Virgil, Segoe UI Emoji" font-size="16px" fill="#1e1e1e" text-anchor="start" style="white-space: pre;" direction="ltr" dominant-baseline="text-before-edge">Scroll</text></g></g><g clip-path="url(#KRGQdwnC18ZheEFGRYMP1)"><g transform="translate(290.93333435058594 124) rotate(0 47.099998474121094 20)"><text x="0" y="0" font-family="Virgil, Segoe UI Emoji" font-size="16px" fill="#1e1e1e" text-anchor="start" style="white-space: pre;" direction="ltr" dominant-baseline="text-before-edge">Refresh w/o</text><text x="0" y="20" font-family="Virgil, Segoe UI Emoji" font-size="16px" fill="#1e1e1e" text-anchor="start" style="white-space: pre;" direction="ltr" dominant-baseline="text-before-edge">page reload</text></g></g><g clip-path="url(#KRGQdwnC18ZheEFGRYMP1)"><g transform="translate(414 136) rotate(0 44.63333511352539 10)"><text x="0" y="0" font-family="Virgil, Segoe UI Emoji" font-size="16px" fill="#1e1e1e" text-anchor="start" style="white-space: pre;" direction="ltr" dominant-baseline="text-before-edge">Inline Edits</text></g></g><g clip-path="url(#KRGQdwnC18ZheEFGRYMP1)"><g transform="translate(981 62) rotate(0 62.79999923706055 25)"><text x="0" y="0" font-family="Virgil, Segoe UI Emoji" font-size="20px" fill="#1e1e1e" text-anchor="start" style="white-space: pre;" direction="ltr" dominant-baseline="text-before-edge">Maximal</text><text x="0" y="25" font-family="Virgil, Segoe UI Emoji" font-size="20px" fill="#1e1e1e" text-anchor="start" style="white-space: pre;" direction="ltr" dominant-baseline="text-before-edge">Interactivity</text></g></g><g clip-path="url(#KRGQdwnC18ZheEFGRYMP1)"><g transform="translate(629.8833332061768 129) rotate(0 20.46666717529297 20)"><text x="0" y="0" font-family="Virgil, Segoe UI Emoji" font-size="16px" fill="#1e1e1e" text-anchor="start" style="white-space: pre;" direction="ltr" dominant-baseline="text-before-edge">Date</text><text x="0" y="20" font-family="Virgil, Segoe UI Emoji" font-size="16px" fill="#1e1e1e" text-anchor="start" style="white-space: pre;" direction="ltr" dominant-baseline="text-before-edge">Grids</text></g></g><g clip-path="url(#KRGQdwnC18ZheEFGRYMP1)"><g transform="translate(718.533332824707 131) rotate(0 46.03333282470703 20)"><text x="0" y="0" font-family="Virgil, Segoe UI Emoji" font-size="16px" fill="#1e1e1e" text-anchor="start" style="white-space: pre;" direction="ltr" dominant-baseline="text-before-edge">Live</text><text x="0" y="20" font-family="Virgil, Segoe UI Emoji" font-size="16px" fill="#1e1e1e" text-anchor="start" style="white-space: pre;" direction="ltr" dominant-baseline="text-before-edge">Dashboards</text></g></g><g clip-path="url(#KRGQdwnC18ZheEFGRYMP1)"><g transform="translate(857.966667175293 130) rotate(0 57.266666412353516 30)"><text x="0" y="0" font-family="Virgil, Segoe UI Emoji" font-size="16px" fill="#1e1e1e" text-anchor="start" style="white-space: pre;" direction="ltr" dominant-baseline="text-before-edge">Design Tools,</text><text x="0" y="20" font-family="Virgil, Segoe UI Emoji" font-size="16px" fill="#1e1e1e" text-anchor="start" style="white-space: pre;" direction="ltr" dominant-baseline="text-before-edge">Games,</text><text x="0" y="40" font-family="Virgil, Segoe UI Emoji" font-size="16px" fill="#1e1e1e" text-anchor="start" style="white-space: pre;" direction="ltr" dominant-baseline="text-before-edge">Video editors...</text></g></g></svg>